<svg xmlns="http://www.w3.org/2000/svg" viewBox="0 0 24 24" fill="currentColor">
  <path d="M20.447 20.452h-3.554v-5.569c0-1.328-.474-2.237-1.668-2.237-.909 0-1.451.613-1.688 1.208-.087.216-.109.517-.109.819v5.779h-3.554s.047-9.378 0-10.318h3.554v1.462c.457-.704 1.273-1.707 3.101-1.707 2.265 0 3.963 1.481 3.963 4.66v5.903zM5.337 8.855c-1.144 0-1.915-.759-1.915-1.71 0-.956.77-1.71 1.957-1.71 1.188 0 1.915.754 1.94 1.71 0 .951-.752 1.71-1.982 1.71zm1.581 11.597H3.635V9.131h3.283v11.321zM22.225 0H1.771C.792 0 0 .774 0 1.729v20.542C0 23.227.792 24 1.771 24h20.451C23.2 24 24 23.227 24 22.271V1.729C24 .774 23.2 0 22.225 0z" />
</svg>
